<?xml version="1.0" standalone="no"?>
<!DOCTYPE svg PUBLIC "-//W3C//DTD SVG 20010904//EN"
 "http://www.w3.org/TR/2001/REC-SVG-20010904/DTD/svg10.dtd">
<svg version="1.0" xmlns="http://www.w3.org/2000/svg"
 width="145.000000pt" height="132.000000pt" viewBox="0 0 145.000000 132.000000"
 preserveAspectRatio="xMidYMid meet">

<g transform="translate(0.000000,132.000000) scale(0.100000,-0.100000)"
fill="#000000" stroke="none">
<path d="M0 660 l0 -660 725 0 725 0 0 660 0 660 -725 0 -725 0 0 -660z m826
630 c88 -16 206 -61 272 -105 6 -5 -22 -55 -31 -55 -5 0 -11 9 -14 20 -4 16
-14 20 -52 20 -27 0 -56 -7 -71 -17 -22 -16 -23 -16 -17 0 4 10 2 17 -5 17 -6
0 -8 3 -4 7 4 4 17 8 28 8 12 0 23 6 25 13 6 15 -29 16 -44 1 -8 -8 -15 -4
-26 11 -33 47 -63 -7 -36 -63 9 -19 6 -18 -14 5 -28 30 -86 63 -95 53 -3 -3
-1 -25 5 -48 6 -23 9 -44 7 -47 -11 -10 -28 36 -25 67 2 32 2 32 -29 21 -32
-11 -90 -79 -90 -105 0 -25 -25 -13 -27 14 0 14 2 21 6 15 4 -6 16 3 30 24 20
29 22 38 13 59 -15 32 -27 32 -48 0 -20 -30 -10 -47 11 -19 12 15 14 16 15 3
0 -8 -11 -25 -24 -36 -21 -18 -26 -19 -38 -7 -8 8 -38 17 -66 21 -47 5 -52 4
-52 -14 0 -10 6 -25 13 -32 10 -11 8 -11 -11 -2 -18 10 -27 10 -40 -1 -11 -9
-14 -10 -8 0 4 7 2 12 -4 12 -8 0 -10 9 -6 26 5 18 3 24 -5 18 -8 -4 -9 -3 -5
5 4 6 12 9 17 6 5 -4 9 -2 9 4 0 13 110 65 170 81 104 28 183 34 266 20z m67
-140 c-6 -6 -33 30 -33 44 0 6 9 0 20 -14 10 -14 16 -27 13 -30z m-203 -5 c-7
-9 -15 -13 -18 -10 -3 2 1 11 8 20 7 9 15 13 18 10 3 -2 -1 -11 -8 -20z m110
3 c21 -23 27 -48 10 -48 -5 0 -7 7 -4 15 4 8 1 15 -5 15 -5 0 -15 9 -21 20
-14 26 -6 25 20 -2z m-280 -23 l25 -14 -26 -1 c-14 0 -34 7 -45 15 -19 14 -19
14 1 14 11 0 31 -6 45 -14z m476 0 c-11 -8 -29 -15 -40 -15 -21 1 -21 1 -2 15
11 8 29 15 40 15 21 -1 21 -1 2 -15z m100 -11 c-4 -9 -9 -15 -11 -12 -3 3 -3
13 1 22 4 9 9 15 11 12 3 -3 3 -13 -1 -22z m-376 11 c0 -3 -9 -15 -20 -27 -11
-12 -20 -16 -20 -10 0 7 -7 12 -15 12 -8 0 -15 4 -15 9 0 5 8 7 19 4 10 -3 22
0 25 6 7 11 26 15 26 6z m-393 -27 c-3 -8 -6 -5 -6 6 -1 11 2 17 5 13 3 -3 4
-12 1 -19z m693 -4 c0 -8 -5 -12 -10 -9 -6 4 -8 11 -5 16 9 14 15 11 15 -7z
m-650 -42 c0 -7 -4 -10 -10 -7 -5 3 -10 16 -10 28 0 18 2 19 10 7 5 -8 10 -21
10 -28z m749 7 c-13 -26 -23 -18 -14 10 3 12 11 19 16 16 5 -4 5 -14 -2 -26z
m-645 -15 c5 -14 4 -15 -9 -4 -17 14 -19 20 -6 20 5 0 12 -7 15 -16z m167 -11
c-12 -20 -14 -14 -5 12 4 9 9 14 11 11 3 -2 0 -13 -6 -23z m-321 -42 c-1 -13
-3 -13 -15 3 -19 26 -19 42 0 26 8 -7 15 -20 15 -29z m851 12 c-8 -15 -10 -15
-11 -2 0 17 10 32 18 25 2 -3 -1 -13 -7 -23z m-491 -18 c0 -5 -5 -3 -10 5 -5
8 -10 20 -10 25 0 6 5 3 10 -5 5 -8 10 -19 10 -25z m121 12 c-10 -9 -11 -8 -5
6 3 10 9 15 12 12 3 -3 0 -11 -7 -18z m130 0 c-10 -9 -11 -8 -5 6 3 10 9 15
12 12 3 -3 0 -11 -7 -18z m-656 -57 c3 -6 -1 -7 -9 -4 -18 7 -21 14 -7 14 6 0
13 -4 16 -10z m940 0 c-7 -12 -45 -14 -45 -2 0 4 11 9 26 10 14 1 23 -2 19 -8z
m-144 -27 c-12 -20 -14 -14 -5 12 4 9 9 14 11 11 3 -2 0 -13 -6 -23z m-664
-15 c-3 -7 -5 -2 -5 12 0 14 2 19 5 13 2 -7 2 -19 0 -25z m218 3 c-3 -6 -11
-11 -16 -11 -5 0 -4 6 3 14 14 16 24 13 13 -3z m235 -9 c0 -15 -2 -15 -10 -2
-13 20 -13 33 0 25 6 -3 10 -14 10 -23z m-620 -22 c13 -8 13 -10 -2 -10 -9 0
-20 5 -23 10 -8 13 5 13 25 0z m1025 0 c-3 -5 -13 -10 -21 -10 -8 0 -14 5 -14
10 0 6 9 10 21 10 11 0 17 -4 14 -10z m-1100 -30 c3 -5 1 -10 -4 -10 -6 0 -11
5 -11 10 0 6 2 10 4 10 3 0 8 -4 11 -10z m572 -37 c-3 -10 -5 -4 -5 12 0 17 2
24 5 18 2 -7 2 -21 0 -30z m-507 -32 c0 -6 -5 -13 -10 -16 -14 -9 -52 4 -45
16 8 12 55 12 55 0z m1068 0 c10 -6 8 -10 -8 -14 -25 -6 -50 1 -50 14 0 11 41
11 58 0z m-873 -59 c-6 -7 -35 18 -35 31 0 5 9 2 20 -8 11 -10 18 -20 15 -23z
m650 19 c-3 -6 -11 -11 -17 -11 -6 0 -6 6 2 15 14 17 26 13 15 -4z m-378 -33
c-3 -8 -6 -5 -6 6 -1 11 2 17 5 13 3 -3 4 -12 1 -19z m-479 -40 c4 -21 -27
-25 -46 -6 -20 20 -14 30 15 26 17 -2 29 -10 31 -20z m1100 10 c-5 -15 -55
-35 -64 -25 -4 3 -4 13 -1 22 8 19 71 21 65 3z m-568 -94 c0 -15 -6 -24 -15
-24 -16 0 -19 17 -9 44 9 22 24 10 24 -20z m-230 1 c17 -20 -9 -21 -36 0 -19
14 -19 14 2 15 12 0 27 -7 34 -15z m475 6 c-6 -5 -21 -12 -35 -15 -24 -7 -24
-6 -6 8 21 17 57 23 41 7z m-763 -30 c4 -3 3 -13 -2 -21 -7 -12 -12 -11 -29 4
-12 11 -21 23 -21 28 0 9 39 1 52 -11z m1068 14 c0 -7 -43 -45 -51 -45 -4 0
-10 7 -13 15 -4 10 2 19 17 25 25 10 47 12 47 5z m-780 -309 c0 -11 -19 -15
-25 -6 -3 5 1 10 9 10 9 0 16 -2 16 -4z m457 -2 c-3 -3 -12 -4 -19 -1 -8 3 -5
6 6 6 11 1 17 -2 13 -5z"/>
<path d="M653 1235 c-3 -9 -3 -18 -1 -21 9 -9 38 8 38 22 0 19 -29 18 -37 -1z"/>
<path d="M780 1241 c0 -5 6 -14 14 -20 16 -13 32 2 21 19 -8 12 -35 13 -35 1z"/>
<path d="M522 1198 c3 -7 13 -15 22 -16 12 -3 17 1 14 10 -3 7 -13 15 -22 16
-12 3 -17 -1 -14 -10z"/>
</g>
</svg>
